<svg xmlns="http://www.w3.org/2000/svg" xmlns:xlink="http://www.w3.org/1999/xlink"><defs><symbol fill="none" viewBox="0 0 12 12" id="icon-arrow"><path d="M11.063 6H.937m10.126 0l-4.5 4.5m4.5-4.5l-4.5-4.5" stroke="currentColor" stroke-width="1.8" stroke-linecap="round" stroke-linejoin="round" /></symbol><symbol fill="none" viewBox="0 0 16 16" id="icon-arrow-up"><path d="M3.2 5.6l3.952 3.952c.467.466 1.23.466 1.697 0L12.801 5.6" stroke="currentColor" stroke-width="1.5" stroke-miterlimit="10" stroke-linecap="round" stroke-linejoin="round" /></symbol><symbol fill="none" viewBox="0 0 6 10" id="icon-breadcrumbs"><path fill-rule="evenodd" clip-rule="evenodd" d="M6 5a.997.997 0 01-.293.707l-4 4A.999.999 0 11.293 8.293l3.305-3.305-3.18-3.293a1 1 0 011.44-1.39l3.861 4A.997.997 0 016 5z" fill="#BBC4D6" /></symbol><symbol fill="none" viewBox="0 0 25 24" id="icon-burger-menu"><rect x="2.5" y="5" width="20" height="2" rx="1" fill="currentColor" /><rect x="2.5" y="11" width="20" height="2" rx="1" fill="currentColor" /><rect x="2.5" y="17" width="20" height="2" rx="1" fill="currentColor" /></symbol><symbol fill="none" viewBox="0 0 24 24" id="icon-close"><path fill-rule="evenodd" clip-rule="evenodd" d="M13.414 12l4.293-4.293a.999.999 0 10-1.414-1.414L12 10.586 7.707 6.293a.999.999 0 10-1.414 1.414L10.586 12l-4.293 4.293a.999.999 0 101.414 1.414L12 13.414l4.293 4.293a.997.997 0 001.414 0 .999.999 0 000-1.414L13.414 12z" fill="currentColor" /></symbol><symbol fill="none" viewBox="0 0 14 12" id="icon-comments"><path d="M2.351 8.805l.018-.188-.112-.153a4.688 4.688 0 01-.927-2.78C1.33 2.883 3.934.5 7.27.5c3.334 0 5.938 2.383 5.938 5.184 0 2.802-2.604 5.184-5.938 5.184a6.606 6.606 0 01-2.444-.459l-.222-.088-.208.118c-.88.498-1.994.79-2.7.939.112-.209.208-.44.29-.686.178-.533.3-1.172.366-1.887z" stroke="currentColor" /></symbol><symbol fill="none" viewBox="0 0 12 12" id="icon-cross"><path fill-rule="evenodd" clip-rule="evenodd" d="M7.414 6l4.293-4.293A.999.999 0 1010.293.293L6 4.586 1.707.293A.999.999 0 10.293 1.707L4.586 6 .293 10.293a.999.999 0 101.414 1.414L6 7.414l4.293 4.293a.997.997 0 001.414 0 .999.999 0 000-1.414L7.414 6z" fill="currentColor" /></symbol><symbol fill="none" viewBox="0 0 24 24" id="icon-exclamation-mark"><path fill-rule="evenodd" clip-rule="evenodd" d="M11 16a1 1 0 102 0 1 1 0 00-2 0zm0-3a1 1 0 002 0V8a1 1 0 00-2 0v5zm1-9c-4.411 0-8 3.589-8 8s3.589 8 8 8 8-3.589 8-8-3.589-8-8-8zm0 18C6.477 22 2 17.523 2 12S6.477 2 12 2c5.522 0 10 4.477 10 10s-4.478 10-10 10z" fill="#FF3332" /></symbol><symbol fill="none" viewBox="0 0 24 24" id="icon-info"><path fill-rule="evenodd" clip-rule="evenodd" d="M11 8a1 1 0 112 0 1 1 0 01-2 0zm0 3a1 1 0 012 0v5a1 1 0 01-2 0v-5zm1 9c-4.411 0-8-3.589-8-8s3.589-8 8-8 8 3.589 8 8-3.589 8-8 8zm0-18C6.477 2 2 6.477 2 12s4.477 10 10 10c5.522 0 10-4.477 10-10S17.522 2 12 2z" fill="#34AADD" /></symbol><symbol fill="none" viewBox="0 0 40 40" id="icon-instagram"><path d="M24.715 10.503c-1.23-.056-1.6-.066-4.715-.066-3.115 0-3.483.011-4.713.066-3.165.145-4.639 1.644-4.784 4.784-.055 1.23-.068 1.598-.068 4.713s.013 3.483.068 4.715c.145 3.132 1.612 4.638 4.784 4.783 1.228.055 1.598.069 4.713.069 3.117 0 3.485-.012 4.715-.069 3.165-.143 4.637-1.646 4.783-4.783.055-1.23.067-1.6.067-4.715 0-3.115-.012-3.483-.067-4.713-.146-3.139-1.621-4.639-4.783-4.784zM20 25.992a5.992 5.992 0 110-11.984 5.992 5.992 0 010 11.984zm6.228-10.819a1.4 1.4 0 110-2.8 1.4 1.4 0 010 2.8zM23.888 20a3.888 3.888 0 11-7.776 0 3.888 3.888 0 017.776 0zM20 0C8.955 0 0 8.955 0 20s8.955 20 20 20 20-8.955 20-20S31.045 0 20 0zm11.597 24.81c-.192 4.242-2.554 6.592-6.785 6.787-1.245.056-1.644.07-4.812.07s-3.565-.014-4.81-.07c-4.24-.195-6.592-2.549-6.787-6.787-.056-1.243-.07-1.642-.07-4.81 0-3.168.014-3.565.07-4.81.195-4.24 2.549-6.592 6.787-6.785 1.245-.058 1.642-.072 4.81-.072 3.168 0 3.567.014 4.812.072 4.241.195 6.595 2.553 6.785 6.785.056 1.245.07 1.642.07 4.81 0 3.168-.014 3.567-.07 4.81z" fill="currentColor" /></symbol><symbol fill="none" viewBox="0 0 14 12" id="icon-like"><g clip-path="url(#icon-like_clip0_15147_20536)"><path d="M6.84 10.57l-.01-.011-.012-.01C5.136 9.089 3.785 7.9 2.85 6.784c-.93-1.11-1.396-2.088-1.396-3.12 0-1.674 1.312-2.975 3.04-2.975a3.4 3.4 0 012.52 1.153l.378.44.379-.44A3.4 3.4 0 0110.289.69c1.729 0 3.041 1.301 3.041 2.974 0 1.033-.466 2.012-1.396 3.121C10.999 7.9 9.648 9.09 7.966 10.55l-.012.01-.01.01-.552.541-.551-.54z" stroke="currentColor" /></g><defs></defs></symbol><clipPath id="icon-like_clip0_15147_20536"><path fill="currentColor" transform="translate(.954 .19)" d="M0 0h12.876v11.621H0z" /></clipPath><symbol fill="currentColor" viewBox="0 0 512.003 512.003" id="icon-pallas-logo"><path d="M506.773 226.309c-1.577-2.799-3.207-5.694-4.405-9.391-.906-2.794-1.764-5.76-2.671-8.898-3.921-13.555-7.975-27.572-17.736-34.154-15.588-10.513-37.866-10.767-46.305-10.44-32.936-24.592-71.446-26.321-73.109-26.385a8.455 8.455 0 00-4.025.871l-33.401 16.7c-16.327-1.046-111.735-6.696-167.521.193-27.846 3.438-52.478 28.325-73.213 73.968a337.45 337.45 0 00-7.294 17.377c-.043.05-.09.094-.132.145-3.354 4.073-12.133 7.897-22.364 9.743-11.379 2.051-20.765 1.119-24.666-.616-7.512-3.338-16.581-.56-23.108 7.075-6.461 7.558-9.924 19.911-3.092 30.471 7.914 12.232 30.359 22.399 51.359 22.397 3.043 0 6.057-.217 8.991-.668l5.308 42.465c1.268 10.148 9.935 17.799 20.161 17.799h15.883c.029 0 .056.007.085.007.038 0 .075-.006.113-.007h8.721c4.584 0 8.3-3.715 8.3-8.3s-3.716-8.3-8.3-8.3h-5.724c-1.472-1.533-3.041-3.686-3.026-5.495.018-2.285 2.981-4.757 4.747-6.028 2.279-1.64 9.584-4.389 16.649-7.047 9.474-3.563 20.903-7.865 32.171-13.47v8.563a20.764 20.764 0 006.121 14.777l22.869 22.869a8.299 8.299 0 005.868 2.43h26.559c4.584 0 8.3-3.715 8.3-8.3s-3.716-8.3-8.3-8.3H200.2c-.437-7.297 4.962-12.925 13.241-20.84 6.917-6.612 14.07-13.451 15.364-22.819 13.266.878 27.364 1.586 40.846 1.586 15.13 0 29.472-.893 40.971-3.433 16.134 16.572 53.871 58.881 54.271 59.329a8.3 8.3 0 006.195 2.776h26.532l.029.002.047-.002h17.657a8.3 8.3 0 008.3-8.3 8.3 8.3 0 00-8.3-8.3h-12.086l-13.752-34.379c7.284-8.663 24.359-29.94 31.945-47.551 4.787 1.301 10.496 1.45 17.385-.183 12.77-3.023 37.333-7.523 52.66-7.523 13.458 0 20.499-13.342 20.499-26.522-.005-6.614-2.662-11.329-5.231-15.892zM61.997 293.98a8.286 8.286 0 00-.146 2.886l.168 1.347c-6.997 1.177-15.414.468-23.922-2.114-10.803-3.276-18.046-8.463-20.431-12.151-2.23-3.446-.412-7.33.473-8.84 1.866-3.183 4.364-4.465 5.135-4.482 10.762 4.735 29.938 4.001 45.619-1.176-4.463 14.051-6.73 23.807-6.896 24.53zm139.971 31.54c-5.79 5.535-12.859 12.298-16.325 21.018l-8.617-8.617a4.332 4.332 0 01-1.259-3.039v-18.084a109.404 109.404 0 007.133-5.18c5.635.1 14.67.785 25.018 1.569l4.166.315c-1.196 3.482-5.718 7.813-10.116 12.018zM491.5 252.123c-18.058 0-44.844 5.213-56.485 7.97-11.995 2.839-15.988-2.718-22.248-16.077a377.81 377.81 0 00-.99-2.1 8.3 8.3 0 00-14.987 7.137c.313.656.626 1.327.946 2.007 2.254 4.812 5.133 10.948 9.552 16.092-7.067 19.591-33.304 49.443-33.57 49.746a8.3 8.3 0 00-1.486 8.577l13.153 32.883H374.8c-9.259-10.355-41.371-46.159-54.458-59.291-2.509-4.182-5.724-25.212 1.639-44.542a8.3 8.3 0 00-4.802-10.711 8.298 8.298 0 00-10.711 4.802c-6.18 16.223-6.875 35.698-3.961 48.902-25.487 4.264-65.974 1.193-93.334-.882-3.942-.299-7.605-.577-10.972-.816a60.854 60.854 0 003.011-4.685 8.3 8.3 0 00-14.372-8.304c-12.336 21.353-44.443 33.431-65.687 41.423-9.541 3.589-16.435 6.183-20.503 9.111-9.626 6.932-11.647 14.443-11.647 19.524 0 1.939.303 3.759.781 5.471h-.234a3.727 3.727 0 01-3.691-3.258l-7.352-58.823c8.131-34.305 37.453-119.606 81.127-124.999 58.274-7.195 165.547-.03 166.625.043a8.315 8.315 0 004.275-.857l33.388-16.693c8.029.699 38.669 4.613 63.988 24.633a8.332 8.332 0 005.909 1.755c.245-.025 24.656-2.11 38.862 7.469 4.77 3.216 8.264 15.298 11.072 25.006.904 3.125 1.839 6.357 2.826 9.404 1.711 5.279 3.943 9.239 5.734 12.421 2.086 3.704 3.09 5.581 3.09 7.743-.003 5.004-1.935 9.919-3.903 9.919z" /><path d="M435.31 188.365c-.625-.208-15.504-5.077-31.095-2.126a8.302 8.302 0 00-6.604 9.745c.35 1.792 3.681 17.784 12.84 27.38a8.273 8.273 0 006.004 2.568 8.3 8.3 0 006.003-14.03c-2.426-2.541-4.366-6.348-5.793-9.982 7.424.287 13.281 2.154 13.418 2.199a8.3 8.3 0 005.227-15.754z" /></symbol><symbol fill="none" viewBox="0 0 25 24" id="icon-profile"><path fill-rule="evenodd" clip-rule="evenodd" d="M12.46 13c-4.075 0-7.446 3.059-7.938 7.002-.069.548.386.998.938.998.552 0 .991-.451 1.083-.996A6.01 6.01 0 0112.46 15a6.01 6.01 0 015.917 5.004c.092.545.53.996 1.083.996.552 0 1.007-.45.938-.998C19.906 16.059 16.535 13 12.46 13z" fill="currentColor" /><path d="M12.46 11c2.206 0 4-1.794 4-4s-1.794-4-4-4-4 1.794-4 4 1.794 4 4 4" stroke="currentColor" stroke-width="2" /></symbol><symbol fill="none" viewBox="0 0 24 24" id="icon-question-mark"><path fill-rule="evenodd" clip-rule="evenodd" d="M8.5 9.5C8.5 7.57 10.07 6 12 6s3.5 1.57 3.5 3.5c0 1.58-1.06 2.903-2.5 3.337V14a1 1 0 11-2 0v-2a1 1 0 011-1c.827 0 1.5-.673 1.5-1.5S12.827 8 12 8s-1.5.673-1.5 1.5a1 1 0 11-2 0zM11 17a1 1 0 112 0 1 1 0 11-2 0zm1 3c-4.411 0-8-3.589-8-8s3.589-8 8-8 8 3.589 8 8-3.589 8-8 8zm0-18C6.486 2 2 6.486 2 12s4.486 10 10 10 10-4.486 10-10S17.514 2 12 2z" fill="#6680AE" /></symbol><symbol fill="none" viewBox="0 0 24 24" id="icon-search"><path d="M20 20l-4.904-4.904m0 0a6.5 6.5 0 10-9.192-9.192 6.5 6.5 0 009.192 9.192z" stroke="currentColor" stroke-width="1.8" stroke-linecap="round" stroke-linejoin="round" /></symbol><symbol fill="none" viewBox="0 0 21 21" id="icon-star"><path d="M19.924 6.718l-5.734-.832L11.627.715c-.46-.922-1.79-.934-2.254 0L6.81 5.885l-5.734.833C.047 6.866-.365 8.128.38 8.85l4.149 4.023-.982 5.683c-.176 1.027.911 1.797 1.822 1.316l5.13-2.683 5.13 2.683c.91.477 1.998-.289 1.822-1.316l-.982-5.683 4.15-4.023c.745-.722.333-1.984-.696-2.132zm-5.475 5.499l.93 5.406-4.879-2.55-4.88 2.55.931-5.406-3.949-3.828L8.06 7.6 10.5 2.68l2.441 4.92 5.457.79-3.95 3.827z" fill="currentColor" /></symbol><symbol fill="none" viewBox="0 0 24 24" id="icon-star-filled"><g clip-path="url(#icon-star-filled_clip0_15147_18502)" fill="currentColor"><path d="M21.924 8.718l-5.734-.832-2.564-5.171c-.459-.922-1.79-.934-2.252 0L8.81 7.885l-5.734.833c-1.029.148-1.441 1.41-.695 2.132l4.149 4.023-.982 5.683c-.176 1.027.911 1.797 1.822 1.316l5.13-2.683 5.13 2.683c.91.477 1.998-.289 1.822-1.316l-.982-5.683 4.15-4.023c.745-.722.333-1.984-.696-2.132zm-5.475 5.499l.93 5.406-4.879-2.55-4.88 2.55.931-5.406-3.949-3.828L10.06 9.6 12.5 4.68l2.441 4.92 5.457.79-3.95 3.827z" /><path d="M12.5 3.019l3.071 5.273 5.964 1.291-4.066 4.55.615 6.072-5.584-2.461-5.584 2.46.615-6.07-4.066-4.55 5.964-1.292L12.5 3.019z" /></g><defs></defs></symbol><clipPath id="icon-star-filled_clip0_15147_18502"><path fill="currentColor" d="M0 0h24v24H0z" /></clipPath><symbol fill="none" viewBox="0 0 11 8" id="icon-tick"><path fill-rule="evenodd" clip-rule="evenodd" d="M10.678.335c.43.446.43 1.17 0 1.616l-5.5 5.714a1.071 1.071 0 01-1.556 0l-3.3-3.428a1.175 1.175 0 010-1.617 1.071 1.071 0 011.556 0L4.4 5.24 9.122.336a1.071 1.071 0 011.556 0z" fill="#fff" /></symbol><symbol fill="none" viewBox="0 0 11 8" id="icon-tick-checked"><path fill-rule="evenodd" clip-rule="evenodd" d="M10.678.335c.43.446.43 1.17 0 1.616l-5.5 5.714a1.071 1.071 0 01-1.556 0l-3.3-3.428a1.175 1.175 0 010-1.617 1.071 1.071 0 011.556 0L4.4 5.24 9.122.336a1.071 1.071 0 011.556 0z" fill="#bbc4d6" /></symbol><symbol fill="none" viewBox="0 0 15 8" id="icon-views"><path d="M14.102 3.51l-.827.562.827-.562zm0 .98l-.827-.562.827.562zM1.685 4.072A6.992 6.992 0 017.48 1v-2A8.992 8.992 0 00.03 2.948l1.655 1.124zM7.48 1a6.992 6.992 0 015.795 3.072l1.654-1.124A8.992 8.992 0 007.479-1v2zm5.795 2.928A6.992 6.992 0 017.48 7v2c3.099 0 5.832-1.567 7.449-3.948l-1.654-1.124zM7.48 7a6.992 6.992 0 01-5.795-3.072L.03 5.052A8.992 8.992 0 007.48 9V7zm5.795-2.928a.13.13 0 010-.144l1.654 1.124a1.871 1.871 0 000-2.104l-1.654 1.124zM.03 2.948a1.87 1.87 0 000 2.104l1.655-1.124a.13.13 0 010 .144L.03 2.948z" fill="currentColor" mask="url(#icon-views_a)" /><circle cx="7.479" cy="4" r="3.5" stroke="currentColor" /><circle cx="7.479" cy="4" r="1" fill="currentColor" /></symbol><mask id="icon-views_a" fill="currentColor"><path fill-rule="evenodd" clip-rule="evenodd" d="M.857 4.49a.871.871 0 010-.98A7.992 7.992 0 017.48 0a7.992 7.992 0 016.622 3.51.87.87 0 010 .98A7.992 7.992 0 017.48 8 7.992 7.992 0 01.857 4.49z" /></mask><symbol fill="none" viewBox="0 0 40 40" id="icon-youtube"><path d="M20 0C8.955 0 0 8.955 0 20s8.955 20 20 20 20-8.955 20-20S31.045 0 20 0zm7.402 28.153c-3.504.24-11.307.24-14.805 0-3.794-.26-4.235-2.116-4.264-8.153.029-6.048.475-7.893 4.264-8.153 3.498-.24 11.303-.24 14.805 0 3.795.26 4.235 2.116 4.265 8.153-.03 6.048-.475 7.893-4.265 8.153zM16.667 16.097l8.195 3.896-8.195 3.91v-7.806z" fill="currentColor" /></symbol></defs></svg>