<svg width="14" height="12" viewBox="0 0 14 12" fill="none" xmlns="http://www.w3.org/2000/svg">
<g clip-path="url(#clip0_15147_20536)">
<path d="M6.84083 10.5694L6.82993 10.5587L6.8184 10.5487C5.13593 9.08862 3.78512 7.90013 2.85009 6.78413C1.92046 5.67459 1.45386 4.69637 1.45386 3.66314C1.45386 1.99039 2.76607 0.689453 4.49485 0.689453C5.44344 0.689453 6.39988 1.13104 7.01342 1.84234L7.39203 2.28129L7.77065 1.84234C8.38418 1.13104 9.34062 0.689453 10.2892 0.689453C12.018 0.689453 13.3302 1.99039 13.3302 3.66314C13.3302 4.69637 12.8636 5.67459 11.934 6.78413C10.9989 7.90013 9.64813 9.08862 7.96567 10.5487L7.95413 10.5587L7.94323 10.5694L7.39203 11.1101L6.84083 10.5694Z" stroke="currentColor"/>
</g>
<defs>
<clipPath id="clip0_15147_20536">
<rect width="12.8764" height="11.6211" fill="currentColor" transform="translate(0.953857 0.189453)"/>
</clipPath>
</defs>
</svg>
