<svg width="25" height="24" viewBox="0 0 25 24" fill="none" xmlns="http://www.w3.org/2000/svg">
<path fill-rule="evenodd" clip-rule="evenodd" d="M12.46 13C8.38512 13 5.01423 16.0589 4.52186 20.002C4.45343 20.55 4.90771 21 5.45999 21C6.01228 21 6.45125 20.5489 6.54262 20.0042C7.01837 17.1682 9.49092 15 12.46 15C15.4291 15 17.9016 17.1682 18.3774 20.0042C18.4687 20.5489 18.9077 21 19.46 21C20.0123 21 20.4666 20.55 20.3981 20.002C19.9058 16.0589 16.5349 13 12.46 13Z" fill="currentColor"/>
<path d="M12.46 11C14.666 11 16.46 9.206 16.46 7C16.46 4.794 14.666 3 12.46 3C10.254 3 8.45996 4.794 8.45996 7C8.45996 9.206 10.254 11 12.46 11" stroke="currentColor" stroke-width="2"/>
</svg>
