<svg width="21" height="21" viewBox="0 0 21 21" fill="none" xmlns="http://www.w3.org/2000/svg">
<path d="M19.9245 6.71768L14.1897 5.88576L11.6265 0.714521C11.1673 -0.207241 9.83664 -0.218958 9.37346 0.714521L6.81029 5.88576L1.07553 6.71768C0.0471214 6.8661 -0.365027 8.12767 0.380766 8.85023L4.52973 12.8732L3.54842 18.5561C3.37179 19.5833 4.45908 20.3527 5.36973 19.8723L10.5 17.189L15.6303 19.8723C16.5409 20.3488 17.6282 19.5833 17.4516 18.5561L16.4703 12.8732L20.6192 8.85023C21.365 8.12767 20.9529 6.8661 19.9245 6.71768ZM14.4488 12.217L15.3791 17.6226L10.5 15.0721L5.62094 17.6226L6.55122 12.217L2.60244 8.38935L8.05851 7.60039L10.5 2.67912L12.9415 7.60039L18.3976 8.38935L14.4488 12.217Z" fill="currentColor"/>
</svg>
