<svg width="15" height="8" viewBox="0 0 15 8" fill="none" xmlns="http://www.w3.org/2000/svg">
<mask id="path-1-inside-1_15147_20576" fill="currentColor">
<path fill-rule="evenodd" clip-rule="evenodd" d="M0.857363 4.48987C0.65627 4.19384 0.65627 3.80616 0.857363 3.51013C2.29648 1.39167 4.72551 0 7.47958 0C10.2336 0 12.6627 1.39167 14.1018 3.51014C14.3029 3.80616 14.3029 4.19385 14.1018 4.48987C12.6627 6.60833 10.2336 8 7.47958 8C4.72551 8 2.29648 6.60833 0.857363 4.48987Z"/>
</mask>
<path d="M14.1018 3.51014L13.2746 4.07206L14.1018 3.51014ZM14.1018 4.48987L13.2746 3.92794L14.1018 4.48987ZM1.68455 4.07206C2.94548 2.21591 5.07069 1 7.47958 1V-1C4.38034 -1 1.64749 0.567426 0.0301757 2.94821L1.68455 4.07206ZM7.47958 1C9.88847 1 12.0137 2.21591 13.2746 4.07206L14.929 2.94821C13.3117 0.567429 10.5788 -1 7.47958 -1V1ZM13.2746 3.92794C12.0137 5.78409 9.88847 7 7.47958 7V9C10.5788 9 13.3117 7.43257 14.929 5.05179L13.2746 3.92794ZM7.47958 7C5.07069 7 2.94548 5.78409 1.68455 3.92794L0.0301757 5.05179C1.64749 7.43257 4.38034 9 7.47958 9V7ZM13.2746 4.07206C13.2453 4.0289 13.2453 3.97111 13.2746 3.92794L14.929 5.05179C15.3605 4.41659 15.3605 3.58342 14.929 2.94821L13.2746 4.07206ZM0.0301757 2.94821C-0.401335 3.58342 -0.401335 4.41658 0.0301757 5.05179L1.68455 3.92794C1.71387 3.9711 1.71387 4.0289 1.68455 4.07206L0.0301757 2.94821Z" fill="currentColor" mask="url(#path-1-inside-1_15147_20576)"/>
<circle cx="7.47949" cy="4" r="3.5" stroke="currentColor"/>
<circle cx="7.47949" cy="4" r="1" fill="currentColor"/>
</svg>
