<?xml version="1.0" encoding="iso-8859-1"?>
<!-- Uploaded to: SVG Repo, www.svgrepo.com, Generator: SVG Repo Mixer Tools -->
<svg fill="#000000" height="800px" width="800px" version="1.1" id="Layer_1" xmlns="http://www.w3.org/2000/svg" xmlns:xlink="http://www.w3.org/1999/xlink" 
	 viewBox="0 0 512.003 512.003" xml:space="preserve">
<g>
	<g>
		<path d="M506.773,226.309c-1.577-2.799-3.207-5.694-4.405-9.391c-0.906-2.794-1.764-5.76-2.671-8.898
			c-3.921-13.555-7.975-27.572-17.736-34.154c-15.588-10.513-37.866-10.767-46.305-10.44
			c-32.936-24.592-71.446-26.321-73.109-26.385c-1.388-0.041-2.778,0.248-4.025,0.871l-33.401,16.7
			c-16.327-1.046-111.735-6.696-167.521,0.193c-27.846,3.438-52.478,28.325-73.213,73.968c-2.678,5.896-5.106,11.742-7.294,17.377
			c-0.043,0.05-0.09,0.094-0.132,0.145c-3.354,4.073-12.133,7.897-22.364,9.743c-11.379,2.051-20.765,1.119-24.666-0.616
			c-7.512-3.338-16.581-0.56-23.108,7.075c-6.461,7.558-9.924,19.911-3.092,30.471c7.914,12.232,30.359,22.399,51.359,22.397
			c3.043,0,6.057-0.217,8.991-0.668l5.308,42.465c1.268,10.148,9.935,17.799,20.161,17.799h15.883c0.029,0,0.056,0.007,0.085,0.007
			c0.038,0,0.075-0.006,0.113-0.007h8.721c4.584,0,8.3-3.715,8.3-8.3s-3.716-8.3-8.3-8.3h-5.724
			c-1.472-1.533-3.041-3.686-3.026-5.495c0.018-2.285,2.981-4.757,4.747-6.028c2.279-1.64,9.584-4.389,16.649-7.047
			c9.474-3.563,20.903-7.865,32.171-13.47v8.563c0,5.581,2.173,10.827,6.121,14.777l22.869,22.869
			c1.556,1.556,3.667,2.43,5.868,2.43h26.559c4.584,0,8.3-3.715,8.3-8.3s-3.716-8.3-8.3-8.3H200.2
			c-0.437-7.297,4.962-12.925,13.241-20.84c6.917-6.612,14.07-13.451,15.364-22.819c13.266,0.878,27.364,1.586,40.846,1.586
			c15.13,0,29.472-0.893,40.971-3.433c16.134,16.572,53.871,58.881,54.271,59.329c1.575,1.766,3.828,2.776,6.195,2.776h26.532
			c0.01,0,0.019,0.002,0.029,0.002c0.016,0,0.031-0.002,0.047-0.002h17.657c4.584,0,8.3-3.715,8.3-8.3c0-4.585-3.716-8.3-8.3-8.3
			h-12.086l-13.752-34.379c7.284-8.663,24.359-29.94,31.945-47.551c4.787,1.301,10.496,1.45,17.385-0.183
			c12.77-3.023,37.333-7.523,52.66-7.523c13.458,0,20.499-13.342,20.499-26.522C511.999,235.587,509.342,230.872,506.773,226.309z
			 M61.997,293.98c-0.217,0.945-0.267,1.922-0.146,2.886l0.168,1.347c-6.997,1.177-15.414,0.468-23.922-2.114
			c-10.803-3.276-18.046-8.463-20.431-12.151c-2.23-3.446-0.412-7.33,0.473-8.84c1.866-3.183,4.364-4.465,5.135-4.482
			c10.762,4.735,29.938,4.001,45.619-1.176C64.43,283.501,62.163,293.257,61.997,293.98z M201.968,325.52
			c-5.79,5.535-12.859,12.298-16.325,21.018l-8.617-8.617c-0.8-0.801-1.259-1.909-1.259-3.039v-18.084
			c2.453-1.639,4.838-3.363,7.133-5.18c5.635,0.1,14.67,0.785,25.018,1.569c1.366,0.104,2.76,0.209,4.166,0.315
			C210.888,316.984,206.366,321.315,201.968,325.52z M491.5,252.123c-18.058,0-44.844,5.213-56.485,7.97
			c-11.995,2.839-15.988-2.718-22.248-16.077c-0.334-0.713-0.663-1.413-0.99-2.1c-1.971-4.139-6.923-5.895-11.062-3.925
			c-4.139,1.971-5.896,6.923-3.925,11.062c0.313,0.656,0.626,1.327,0.946,2.007c2.254,4.812,5.133,10.948,9.552,16.092
			c-7.067,19.591-33.304,49.443-33.57,49.746c-2.075,2.349-2.65,5.668-1.486,8.577l13.153,32.883H374.8
			c-9.259-10.355-41.371-46.159-54.458-59.291c-2.509-4.182-5.724-25.212,1.639-44.542c1.632-4.284-0.518-9.079-4.802-10.711
			c-4.285-1.634-9.079,0.518-10.711,4.802c-6.18,16.223-6.875,35.698-3.961,48.902c-25.487,4.264-65.974,1.193-93.334-0.882
			c-3.942-0.299-7.605-0.577-10.972-0.816c1.072-1.515,2.08-3.075,3.011-4.685c2.293-3.969,0.934-9.045-3.034-11.338
			c-3.967-2.292-9.045-0.936-11.338,3.034c-12.336,21.353-44.443,33.431-65.687,41.423c-9.541,3.589-16.435,6.183-20.503,9.111
			c-9.626,6.932-11.647,14.443-11.647,19.524c0,1.939,0.303,3.759,0.781,5.471h-0.234c-1.871,0-3.458-1.401-3.691-3.258
			l-7.352-58.823c8.131-34.305,37.453-119.606,81.127-124.999c58.274-7.195,165.547-0.03,166.625,0.043
			c1.474,0.1,2.951-0.196,4.275-0.857l33.388-16.693c8.029,0.699,38.669,4.613,63.988,24.633c1.668,1.32,3.79,1.945,5.909,1.755
			c0.245-0.025,24.656-2.11,38.862,7.469c4.77,3.216,8.264,15.298,11.072,25.006c0.904,3.125,1.839,6.357,2.826,9.404
			c1.711,5.279,3.943,9.239,5.734,12.421c2.086,3.704,3.09,5.581,3.09,7.743C495.4,247.208,493.468,252.123,491.5,252.123z"/>
	</g>
</g>
<g>
	<g>
		<path d="M435.31,188.365c-0.625-0.208-15.504-5.077-31.095-2.126c-2.171,0.411-4.088,1.67-5.328,3.499
			c-1.239,1.828-1.699,4.077-1.276,6.246c0.35,1.792,3.681,17.784,12.84,27.38c1.631,1.709,3.816,2.568,6.004,2.568
			c2.059,0,4.122-0.761,5.73-2.296c3.315-3.164,3.438-8.418,0.273-11.734c-2.426-2.541-4.366-6.348-5.793-9.982
			c7.424,0.287,13.281,2.154,13.418,2.199c4.345,1.433,9.029-0.916,10.476-5.256C442.009,194.515,439.659,189.814,435.31,188.365z"
			/>
	</g>
</g>
</svg>